<?xml version="1.0" encoding="UTF-8" standalone="no"?>
<svg
   version="1.1"
   width="88"
   height="88"
   viewBox="0 0 275 275"
   id="svg1"
   xml:space="preserve"
   xmlns="http://www.w3.org/2000/svg"
   xmlns:svg="http://www.w3.org/2000/svg"><defs
     id="defs1" /><g
     id="layer2"
     style="fill:#192a51;fill-opacity:1"><path
       style="fill:#f4f4f2;fill-opacity:1;stroke-width:3.125"
       id="rect2"
       width="275"
       height="275"
       x="1.4210855e-14"
       y="-1.7763568e-15"
       d="M 27.025806,0 H 243.70645 A 31.293548,31.293548 45 0 1 275,31.293548 V 246.55161 A 28.448387,28.448387 135 0 1 246.55161,275 H 29.396774 A 29.396774,29.396774 45 0 1 0,245.60323 V 27.025806 A 27.025806,27.025806 135 0 1 27.025806,0 Z" /></g><g
     id="g1"
     transform="translate(-17.894383,-7.7112754)"><path
       id="Selection"
       fill="none"
       stroke="#000000"
       stroke-width="1"
       d="m 160.1129,163.43226 c 0,0 0,-103.000002 0,-103.000002 0.02,-11.99 6.3,-14.76 16,-20.14 15.72,-8.72 34.84,-15.64 53,-15.86 0,0 19,0 19,0 3.25,-0.01 10.32,-1.04 12.69,0.78 2.71,2.08 2.3,6.17 2.31,9.22 0,0 0,22 0,22 -0.04,2.17 -0.02,4 -1.02,6 -1.78,3.56 -18.93,19.95 -22.98,24 0,0 -48,48.000002 -48,48.000002 -7.04,7.04 -23.61,23.71 -31,29 z m -8.8,77 c 0,0 -29.2,-13.57 -29.2,-13.57 -12.55,-5.37 -39.359997,-11.27 -52.999997,-11.43 -4.59,-0.05 -16.23,0.88 -18.98,-3.31 -1.23,-1.88 -1.02,-5.48 -1.02,-7.69 0,0 0,-138.000002 0,-138.000002 0,0 0,-32 0,-32 0.01,-2.54 -0.32,-6.48 1.6,-8.4 1.92,-1.92 5.86,-1.59 8.4,-1.6 0,0 23,0 23,0 15.93,0.19 40.619997,7.58 53.999997,16.05 9.21,5.83 14.98,8.33 15,19.95 0,0 0,104.000002 0,104.000002 -8.27,-3.91 -25.21,-22.78 -33,-29.83 -4.49,-4.06 -14.42,-14.87 -19.999997,-15.01 -4.4,-0.1 -7.1,3 -10,5.84 -5.47,5.38 -12.79,10.51 -8.55,19 2.22,4.44 13.46,14.91 17.55,19 0,0 36.999997,37 36.999997,37 3.67,3.67 15.9,15.78 17.2,20 z M 26.112903,49.432258 c 0,0 14,0 14,0 0,0 0,151.000002 0,151.000002 0,0 0.69,8.72 0.69,8.72 0.49,6.19 0.19,12.04 7.31,14.68 1.92,0.71 4.92,0.6 7,0.6 0,0 15,0 15,0 21.78,0.26 42.279997,6.52 61.999997,15.44 4.94,2.23 10.55,5.85 15,8.98 2.33,1.64 6.08,4.79 9,4.74 3.18,-0.07 8.27,-4.8 11,-6.72 6.12,-4.31 15.13,-9.03 22,-12.13 15.12,-6.81 38.43,-10.09 55,-10.31 2.51,-0.04 9.89,-0.3 7.83,-4.82 -1.88,-4.11 -11,-3.22 -14.83,-3.18 -13.51,0.16 -41.67,6.97 -54,12.51 0,0 -22,11.49 -22,11.49 0,0 0,-16 0,-16 0,0 1.02,-8 1.02,-8 0,0 22.98,-24 22.98,-24 0,0 48,-47 48,-47 0,0 30,-29 30,-29 0,0 1,16 1,16 0,0 0,75 0,75 0,0 0.83,9 0.83,9 0.81,8.45 -0.32,12.96 -1.83,21 -22.15,0 -47,-1.02 -68,7.2 -7.37,2.89 -16.83,7.44 -23,12.31 -4.79,3.78 -9.3,9.6 -16,9.34 -6.15,-0.24 -19.24,-11.49 -26,-15.07 -14.54,-7.7 -35.509997,-13.75 -51.999997,-13.82 0,0 -40,0 -40,0 -2.51,0.07 -7.92,0.92 -9.85,0 -3.59,-1.9 -3.14,-6.57 -3.15,-9.96 0,0 0,-122 0,-122 0,0 1,-15.000002 1,-15.000002 z"
       style="fill:#192a51;fill-opacity:1" /><path
       id="Selection #1"
       fill="none"
       stroke="#000000"
       stroke-width="1"
       d="m 276.05078,63.928058 c 6.64,-0.91 10.62,5.05 9.43,11.22 -0.72,3.7 -2.97,6.34 -5.47,9 0,0 -33.96,33.010002 -33.96,33.010002 0,0 -54,53.99 -54,53.99 0,0 -24,24 -24,24 -2.48,2.48 -7.77,8.44 -11,9.22 -5.63,1.36 -12.48,-6.7 -16,-10.22 0,0 -38.58,-39 -38.58,-39 -3.27,-3.77 -13.19,-12.02 -11.76,-17 1.08,-3.78 5.48,-6.47 9.34,-5.67 4.12,0.86 9.94,7.61 13,10.67 0,0 28,27.58 28,27.58 2.51,2.17 10.33,10.38 13,10.38 2.73,0 7.1,-5.06 9,-6.96 0,0 23,-23 23,-23 0,0 53,-52.960005 53,-52.960005 0,0 9,-8.079997 9,-8.079997 6.56,-6.27 21.14,-22.73 28,-26.18 z"
       style="fill:#5a716a;fill-opacity:1" /></g></svg>
